# File created by Blade
# Date/Time:  Mon Sep 22 16:45:27 2014
# Frame Rate: 120.000 fps
#------------------------------------------------------
:FULLY-SPECIFIED
:DEGREES
2295
root 4.403183 38.109599 0.015967 -2.835367 23.319544 33.311199
RightUpLeg 8.253886 -12.772138 -27.777158
RightLeg 24.057513 -0.000000 -0.000000
RightFoot -28.710817 -27.700864 17.480145
RightToeBase 6.956643 -0.000000 -0.000000
LeftUpLeg -48.591061 30.290605 11.063023
LeftLeg 122.896655 -0.000000 -0.000000
LeftFoot 11.436068 11.035256 -22.663982
LeftToeBase -0.006976 -0.000000 0.000000
Spine 26.131315 -8.666906 -16.365816
RightShoulder 2.042732 -12.223340 -22.819735
RightArm 15.455739 28.368237 45.366088
RightForeArm 23.659631 -0.000000 110.817995
RightHand 7.302830 -0.000000 -30.613336
RightHandThumb1 -24.326973 -0.000000 -32.862282
LeftShoulder -20.254433 32.131813 -8.864125
LeftArm 51.061721 16.683532 -46.113731
LeftForeArm 37.682568 -0.000000 99.059748
LeftHand -11.966268 -0.000000 -11.667578
LeftHandThumb1 -26.253704 0.000000 33.147579
Head 1.595569 -5.729648 -15.382543
2296
root 4.394598 38.103341 -0.002071 -2.781500 23.306457 33.298299
RightUpLeg 8.142945 -12.656080 -27.672268
RightLeg 24.038066 -0.000000 -0.000000
RightFoot -28.286684 -28.301564 16.839426
RightToeBase 6.202240 -0.000000 -0.000000
LeftUpLeg -48.632076 30.189999 10.902742
LeftLeg 122.348124 -0.000000 -0.000000
LeftFoot 10.524658 11.273141 -22.366298
LeftToeBase -0.093122 -0.000000 0.000000
Spine 26.202806 -8.601491 -16.289983
RightShoulder 2.070738 -12.159260 -22.928995
RightArm 15.607520 28.430731 45.565042
RightForeArm 23.522107 -0.000000 110.833872
RightHand 7.279930 -0.000000 -30.556181
RightHandThumb1 -24.326973 -0.000000 -32.862282
LeftShoulder -20.239656 32.086654 -8.859455
LeftArm 51.170314 16.704474 -46.314202
LeftForeArm 37.696957 -0.000000 99.031984
LeftHand -11.869987 -0.000000 -11.726281
LeftHandThumb1 -26.253704 0.000000 33.147579
Head 1.491396 -5.775708 -15.479436
2297
root 4.390163 38.099055 -0.023854 -2.696576 23.304597 33.341601
RightUpLeg 7.967597 -12.506465 -27.614228
RightLeg 24.155285 -0.000000 -0.000000
RightFoot -28.315603 -28.564574 16.762939
RightToeBase 6.189449 -0.000000 -0.000000
LeftUpLeg -48.683691 30.039753 10.680831
LeftLeg 121.817819 -0.000000 -0.000000
LeftFoot 9.857875 11.546122 -22.158250
LeftToeBase -0.411319 -0.000000 0.000000
Spine 26.273111 -8.565526 -16.280587
RightShoulder 2.119375 -12.062260 -23.030436
RightArm 15.721408 28.458856 45.703210
RightForeArm 23.481544 -0.000000 110.842313
RightHand 7.364168 -0.000000 -30.608408
RightHandThumb1 -24.326973 -0.000000 -32.862282
LeftShoulder -20.245434 32.034789 -8.852167
LeftArm 51.269743 16.744516 -46.524628
LeftForeArm 37.694627 0.000000 99.004221
LeftHand -11.756430 -0.000000 -11.711079
LeftHandThumb1 -26.253704 0.000000 33.147579
Head 1.396475 -5.778398 -15.534740
2298
root 4.386439 38.094830 -0.046411 -2.619251 23.292344 33.411578
RightUpLeg 7.787830 -12.397477 -27.610909
RightLeg 24.312818 -0.000000 -0.000000
RightFoot -28.401519 -28.680465 16.776352
RightToeBase 6.194280 -0.000000 -0.000000
LeftUpLeg -48.706995 29.888908 10.467916
LeftLeg 121.312655 -0.000000 -0.000000
LeftFoot 9.396920 11.789783 -22.006834
LeftToeBase -0.840546 -0.000000 0.000000
Spine 26.392127 -8.571841 -16.348888
RightShoulder 2.195491 -11.939425 -23.113043
RightArm 15.864489 28.477293 45.800021
RightForeArm 23.394554 -0.000000 110.847313
RightHand 7.335350 -0.000000 -30.697503
RightHandThumb1 -24.326973 -0.000000 -32.862282
LeftShoulder -20.366731 31.945653 -8.889023
LeftArm 51.392297 16.809411 -46.692640
LeftForeArm 37.710497 -0.000000 98.979583
LeftHand -11.939362 -0.000000 -11.445375
LeftHandThumb1 -26.253704 0.000000 33.147579
Head 1.231820 -5.764543 -15.536393
2299
root 4.382501 38.088473 -0.067866 -2.516211 23.279982 33.418738
RightUpLeg 7.552862 -12.276558 -27.512086
RightLeg 24.496429 -0.000000 -0.000000
RightFoot -28.834057 -28.488237 17.177798
RightToeBase 6.855623 -0.000000 -0.000000
LeftUpLeg -48.761307 29.718417 10.353774
LeftLeg 120.871517 -0.000000 -0.000000
LeftFoot 9.126788 11.856293 -22.065701
LeftToeBase -0.793462 -0.000000 0.000000
Spine 26.396758 -8.534898 -16.278881
RightShoulder 2.284493 -11.929597 -23.228994
RightArm 15.958031 28.598365 45.908637
RightForeArm 23.303614 -0.000000 110.872535
RightHand 7.279753 -0.000000 -30.632653
RightHandThumb1 -24.326973 -0.000000 -32.862282
LeftShoulder -20.345904 31.937646 -8.913727
LeftArm 51.482184 16.849128 -46.863305
LeftForeArm 37.664199 -0.000000 98.971044
LeftHand -12.051513 -0.000000 -11.301864
LeftHandThumb1 -26.253704 0.000000 33.147579
Head 1.219784 -5.793478 -15.598174
2300
root 4.379175 38.082989 -0.087409 -2.443516 23.273324 33.443768
RightUpLeg 7.382919 -12.217037 -27.476788
RightLeg 24.635346 -0.000000 -0.000000
RightFoot -29.008150 -28.437098 17.262997
RightToeBase 7.076792 -0.000000 -0.000000
LeftUpLeg -48.800851 29.558357 10.234088
LeftLeg 120.434477 -0.000000 -0.000000
LeftFoot 9.198419 12.035084 -21.984516
LeftToeBase -1.243329 -0.000000 0.000000
Spine 26.468006 -8.493504 -16.256201
RightShoulder 2.334551 -11.801442 -23.294130
RightArm 16.002554 28.648134 45.943057
RightForeArm 23.316351 -0.000000 110.896865
RightHand 7.221756 -0.000000 -30.588381
RightHandThumb1 -24.326973 -0.000000 -32.862282
LeftShoulder -20.391300 31.912044 -8.948685
LeftArm 51.624744 16.906796 -47.003606
LeftForeArm 37.687289 -0.000000 98.955386
LeftHand -12.171423 -0.000000 -11.232873
LeftHandThumb1 -26.253704 0.000000 33.147579
Head 1.174565 -5.816458 -15.632788
2301
root 4.374287 38.077293 -0.107063 -2.381647 23.249563 33.445092
RightUpLeg 7.200230 -12.162401 -27.423617
RightLeg 24.791404 -0.000000 -0.000000
RightFoot -29.734744 -27.963348 18.055800
RightToeBase 8.123022 -0.000000 -0.000000
LeftUpLeg -48.818400 29.398568 10.187638
LeftLeg 120.062680 -0.000000 -0.000000
LeftFoot 9.321655 12.093887 -22.153069
LeftToeBase -1.148873 -0.000000 0.000000
Spine 26.531998 -8.415555 -16.183217
RightShoulder 2.345315 -11.735348 -23.362305
RightArm 16.087490 28.703392 45.968203
RightForeArm 23.338938 0.000000 110.916515
RightHand 7.200099 -0.000000 -30.617812
RightHandThumb1 -24.326973 -0.000000 -32.862282
LeftShoulder -20.378275 31.888059 -8.979244
LeftArm 51.731106 16.946115 -47.140587
LeftForeArm 37.704553 -0.000000 98.966056
LeftHand -12.173056 -0.000000 -11.256648
LeftHandThumb1 -26.253704 0.000000 33.147579
Head 1.136873 -5.924291 -15.671054
